<svg width="11" height="8" viewBox="0 0 11 8" fill="none" xmlns="http://www.w3.org/2000/svg">
<path d="M4.26731 0.0309504C4.21011 0.151667 4.12398 0.113423 4.0588 0.124065C3.04252 0.290674 2.71196 0.842712 3.08109 1.81277C3.49545 2.90155 4.25567 3.74191 5.11632 4.49148C6.25531 5.48349 7.52533 6.23772 9.03811 6.51141C9.15484 6.53269 9.27422 6.54633 9.39294 6.54965C10.4668 6.57991 10.8838 6.09771 10.7371 5.03587C10.9978 5.43527 11.0677 5.86858 10.933 6.33915C10.7754 6.89085 10.381 7.17651 9.84222 7.27129C9.084 7.40465 8.35538 7.24103 7.64871 6.98164C7.28656 6.84862 6.93006 6.68833 6.59352 6.50044C6.07706 6.21244 5.5922 5.96602 4.94339 5.99429C4.10436 6.0312 3.48714 5.36676 3.51208 4.54469C3.52405 4.14796 3.405 3.86795 3.18053 3.57896C2.99929 3.3455 2.85197 3.08611 2.68702 2.83404C2.54003 2.84302 2.50445 2.9777 2.43594 3.05918C2.3119 3.20616 2.20215 3.31923 2.50112 3.47021C3.01259 3.72827 3.22475 4.20017 3.1506 4.77848C3.07444 5.37308 2.73291 5.7482 2.17056 5.9311C1.2301 6.23738 0.298622 5.81837 0.0445512 4.99563C-0.0488961 4.69301 -0.0159727 4.54303 0.344515 4.5703C0.643812 4.59291 0.930474 4.52241 1.13599 4.88556C1.29296 5.16257 1.65378 5.07411 1.91616 4.98034C2.12667 4.90485 2.21978 4.70232 2.15859 4.46322C2.07545 4.13731 1.82504 4.08045 1.53738 4.06914C1.05019 4.05018 0.888572 3.7163 1.16858 3.2923C1.33053 3.0472 1.51876 2.81941 1.75587 2.50315C1.27433 2.50315 0.865956 2.48652 0.459909 2.50814C0.0827945 2.52809 0.148976 2.27468 0.159617 2.06318C0.169926 1.85667 0.0329121 1.56103 0.456252 1.57732C0.978027 1.59727 1.50113 1.58264 2.02324 1.57898C2.14828 1.57799 2.27099 1.61623 2.31157 1.40439C2.53504 0.239128 3.04384 -0.114708 4.26731 0.0309504Z" fill="white"/>
<path d="M8.71454 1.5777C8.96828 1.5777 9.22168 1.57837 9.47542 1.5777C9.9533 1.57637 10.1635 1.89862 9.99054 2.35521C9.92536 2.52748 9.78636 2.5022 9.65666 2.50353C9.2985 2.50752 8.93968 2.52083 8.58285 2.50154C8.30051 2.48624 8.3321 2.66648 8.3045 2.84573C8.26692 3.08816 8.38897 3.12075 8.58384 3.11942C9.10795 3.1151 9.59547 3.21486 9.93102 3.67013C10.2948 4.16397 10.3005 4.95777 9.9503 5.43598C9.5835 5.93681 8.69325 6.17126 8.03347 5.94047C7.51868 5.76022 7.16584 5.43266 7.05577 4.87796C7.01553 4.6751 7.06375 4.56137 7.29687 4.575C7.61678 4.59396 7.93836 4.48754 8.17414 4.88162C8.34441 5.16628 8.71221 5.07616 8.99156 4.95611C9.19707 4.86765 9.24097 4.66114 9.19175 4.45861C9.11394 4.13703 8.85687 4.07218 8.57021 4.07052C8.22701 4.06853 7.88349 4.06021 7.54096 4.07185C7.32014 4.0795 7.21273 4.02696 7.23667 3.77455C7.29753 3.13671 7.34741 2.49721 7.381 1.85705C7.39264 1.63557 7.48808 1.57704 7.68495 1.5807C8.02782 1.58735 8.37135 1.58236 8.71421 1.58236C8.71454 1.5807 8.71454 1.57937 8.71454 1.5777Z" fill="white"/>
<path d="M5.3142 2.91452C6.47813 3.28266 6.92708 3.95774 6.68631 4.91616C6.61814 5.18785 6.53699 5.31356 6.25432 5.08476C5.99426 4.87426 5.70927 4.7429 5.69896 4.31557C5.69131 4.00264 5.38436 3.88059 5.06877 3.87859C4.82002 3.87693 4.15425 3.34784 4.11501 3.12769C4.11235 3.11372 4.10503 3.0951 4.11102 3.08545C4.41464 2.6119 4.68002 2.10575 5.03984 1.67942C5.24702 1.434 5.63511 1.59927 5.94072 1.58564C6.16121 1.57566 6.13361 1.70469 6.03717 1.84536C5.79573 2.19687 5.55895 2.55171 5.3142 2.91452Z" fill="white"/>
</svg>
