<svg width="23" height="11" viewBox="0 0 23 11" fill="none" xmlns="http://www.w3.org/2000/svg">
<path d="M23 0.585988L22.3873 0C22.3873 0 21.8646 2.43843 18.4862 1.79286C18.4862 1.79286 18.3733 5.40359 18.1923 5.89871C18.1923 5.89871 17.5072 9.69841 15.3766 9.89725C15.3766 9.89725 5.93328 10.7532 3.64826 9.81495C3.64826 9.81495 0.921448 9.67438 0 8.46422C0.230773 9.03605 0.545165 9.47422 0.972804 9.66055C0.972804 9.66055 12.7906 12.3995 17.9773 9.66055C18.0547 9.61973 18.1291 9.58056 18.2018 9.54204L18.2604 9.40312C18.5142 8.18802 19.3744 3.91755 19.0933 3.1268C19.0936 3.12713 22.869 1.18021 23 0.585988Z" fill="#D8AC0F"/>
</svg>
