<svg width="3" height="3" viewBox="0 0 3 3" fill="none" xmlns="http://www.w3.org/2000/svg">
<path d="M0 2.99993C0.0367384 2.65407 0.0630867 2.37204 0.0794149 2.15384C0.110216 1.75528 0.133595 1.35932 0.14881 0.965962C0.164396 0.572601 0.171817 0.250489 0.171817 0C0.371095 0.00296876 0.547366 0.00445296 0.700999 0.00445296C0.804906 0.00445296 0.954458 0.00296876 1.14891 0L1.09585 0.795628L1.02979 2.03954L1.02088 2.34495C1.27286 2.3494 1.43725 2.35163 1.51333 2.35163C1.8989 2.35163 2.19057 2.34644 2.38837 2.33604L2.34013 2.99993C1.95493 2.99697 1.58755 2.99548 1.23909 2.99548C0.767796 2.99548 0.354767 2.99697 0 2.99993Z" fill="white"/>
</svg>
