<svg width="3" height="3" viewBox="0 0 3 3" fill="none" xmlns="http://www.w3.org/2000/svg">
<path d="M0.112125 0C0.331394 0.00284765 0.48588 0.00427131 0.575582 0.00427131C0.688064 0.00427131 0.837565 0.00284765 1.02444 0L0.961794 0.895943C0.949335 1.06467 0.939725 1.22271 0.933674 1.37043C0.927267 1.51816 0.924419 1.61996 0.924419 1.6762C0.924419 1.78299 0.932251 1.87233 0.947557 1.94388C0.962863 2.01543 0.990983 2.0763 1.03192 2.12613C1.0725 2.17596 1.12909 2.21369 1.20135 2.23897C1.27361 2.26424 1.34908 2.27705 1.42774 2.27705C1.49502 2.27705 1.55838 2.2678 1.61747 2.24965C1.66374 2.2347 1.70539 2.2137 1.7417 2.187C1.77409 2.16173 1.80221 2.13254 1.82606 2.09908C1.8556 2.05885 1.88159 2.00866 1.90401 1.94851C1.92644 1.89155 1.94317 1.81787 1.95456 1.72746C1.96737 1.63562 1.9841 1.42632 2.00511 1.09991C2.02326 0.821903 2.0375 0.56775 2.04711 0.336734C2.05565 0.112481 2.06312 0.000356304 2.07024 0.000356304C2.28239 0.000356304 2.44969 0.000356304 2.57214 0.000356304H3L2.89749 1.49715C2.89606 1.52527 2.89535 1.54841 2.89535 1.56692C2.88966 1.85916 2.87186 2.06562 2.8416 2.18557C2.81135 2.30589 2.76116 2.41018 2.69103 2.49846C2.62055 2.58709 2.51804 2.66683 2.38313 2.73766C2.24822 2.80885 2.0948 2.85905 1.92359 2.88823C1.75202 2.91778 1.57831 2.93237 1.40282 2.93237C1.24514 2.93237 1.0935 2.92098 0.9472 2.89856C0.812293 2.87613 0.690556 2.84338 0.582345 2.80067C0.474134 2.75795 0.379805 2.70741 0.299715 2.6501C0.226744 2.59671 0.170503 2.54224 0.130992 2.48671C0.0914806 2.43118 0.0605129 2.36498 0.0380876 2.28738C0.0128147 2.20017 0 2.10691 0 2.00688C0 1.97307 0.00142365 1.92217 0.00427131 1.85418C0.00711896 1.78619 0.0135254 1.68795 0.0234922 1.56016L0.0509016 1.22271C0.0580207 1.13408 0.0658526 1.00415 0.0740396 0.832583L0.112125 0Z" fill="white"/>
</svg>
