<svg width="3" height="3" viewBox="0 0 3 3" fill="none" xmlns="http://www.w3.org/2000/svg">
<path d="M0 2.89447C0.0310122 2.57366 0.0524014 2.31665 0.0638082 2.1238C0.0809184 1.83685 0.0976697 1.46506 0.11478 1.00915C0.127613 0.660169 0.13403 0.410288 0.13403 0.25986V0.0128321C0.298716 0.0171097 0.440943 0.0192482 0.560358 0.0192482C0.675852 0.0192482 0.826992 0.0160393 1.01413 0.00962301C1.20128 0.00320668 1.37702 0 1.5417 0C1.73027 0 1.89567 0.0114051 2.03754 0.0338622C2.17977 0.0563194 2.31238 0.103017 2.43536 0.17324C2.55833 0.243463 2.66135 0.335788 2.74441 0.449856C2.82746 0.563924 2.89091 0.69724 2.9344 0.849806C2.97789 1.00237 2.99999 1.15993 2.99999 1.32176C2.99999 1.48074 2.98324 1.63402 2.94937 1.78089C2.91551 1.9281 2.86846 2.06071 2.80786 2.1787C2.74726 2.29704 2.67668 2.39864 2.59576 2.48383C2.51485 2.56903 2.42216 2.64174 2.31808 2.70234C2.24073 2.74726 2.16266 2.78255 2.08388 2.80785C2.0051 2.83316 1.89745 2.85348 1.76093 2.86917C1.60907 2.88592 1.43654 2.89447 1.2437 2.89447L0.390682 2.88806C0.310478 2.88806 0.18037 2.8902 0 2.89447ZM0.9129 2.25926C0.990253 2.26639 1.07117 2.26995 1.15565 2.26995C1.29895 2.26995 1.42692 2.25712 1.53956 2.23181C1.65221 2.2065 1.75094 2.15232 1.83614 2.06927C1.92133 1.98621 1.98407 1.87963 2.02507 1.74952C2.0657 1.61941 2.08638 1.48609 2.08638 1.34957C2.08638 1.18203 2.05608 1.04087 1.99548 0.926446C1.93488 0.811665 1.85432 0.731816 1.75379 0.686902C1.65327 0.641988 1.51639 0.619532 1.34315 0.619532C1.24192 0.619532 1.12214 0.623809 0.984193 0.632364L0.9129 2.25926Z" fill="white"/>
</svg>
