<svg width="4" height="3" viewBox="0 0 4 3" fill="none" xmlns="http://www.w3.org/2000/svg">
<path d="M1.80368 0C2.02964 0 2.24701 0.0303887 2.4558 0.0911668C2.66459 0.151945 2.84764 0.248833 3.00423 0.382188C3.16082 0.515542 3.27809 0.668918 3.35567 0.842672C3.43325 1.01643 3.47222 1.21592 3.47222 1.44187C3.47222 1.67891 3.42968 1.89664 3.34423 2.09506C3.25878 2.29348 3.1358 2.46187 2.97492 2.59988C2.81403 2.73824 2.62204 2.83941 2.39895 2.90377C2.17586 2.96812 1.94383 2.99994 1.70215 2.99994C1.46368 2.99994 1.23487 2.96848 1.01607 2.90556C0.797268 2.84263 0.60707 2.7411 0.445471 2.60059C0.283873 2.46009 0.169109 2.30385 0.101538 2.13153C0.0339674 1.9592 0 1.76793 0 1.55771C0 1.24846 0.0715041 0.977098 0.214869 0.743638C0.358234 0.510179 0.570603 0.327487 0.852328 0.196277C1.13405 0.0650681 1.45081 0 1.80368 0ZM1.76543 0.637456C1.60311 0.637456 1.45618 0.677498 1.32497 0.757224C1.19376 0.836951 1.09294 0.947784 1.02215 1.08972C0.95136 1.23165 0.916321 1.3836 0.916321 1.54591C0.916321 1.69535 0.9485 1.83264 1.01285 1.9567C1.07721 2.08112 1.17481 2.178 1.30602 2.24772C1.43723 2.31779 1.5763 2.35247 1.72324 2.35247C1.87984 2.35247 2.02356 2.31315 2.15405 2.23485C2.28454 2.15655 2.38429 2.04644 2.45258 1.9045C2.52086 1.76257 2.55519 1.6142 2.55519 1.45868C2.55519 1.3078 2.52337 1.16837 2.45973 1.04038C2.39609 0.912389 2.30313 0.813356 2.18015 0.742925C2.05788 0.672494 1.91952 0.637456 1.76543 0.637456Z" fill="white"/>
</svg>
